# xmcd
#
# Track frame offsets:
# 150
# 13761
# 30993
# 44586
# 64868
# 80344
# 93708
# 105858
# 120027
# 134310
# 148585
# 165401
# 179682
# 199896
# 213376
# 227402
#
# Disc length: 3190 seconds
#
#
# Revision: 0
# Processed by: cddbd v1.5.2PL0 Copyright (c) Steve Scherf et al.
# Submitted via: FreeRIP 2.951 
#
DISCID=cf0c7410
DTITLE=daniel - meu reino encantado
DYEAR=2005
DGENRE=Vocal
TTITLE0=hddddddddd
TTITLE1=fffffffffffff
TTITLE2=hhhhhhhhhhhhh
TTITLE3=kkkkkkkkkkkk
TTITLE4=wwwwwwwwwwww
TTITLE5=aaaaaaaaaaaa
TTITLE6=ddxxxxxxxxxxxxx
TTITLE7=nmvvvvvvvvvvv
TTITLE8=llkggggggggggggg
TTITLE9=hgytttttttt
TTITLE10=fdreeeeeerrrrrrr
TTITLE11=oiudddde
TTITLE12=pyuddddddddddddda
TTITLE13=zxjjjjt
TTITLE14=nx0bbt
TTITLE15=jhhg
EXTD=
EXTT0=
EXTT1=
EXTT2=
EXTT3=
EXTT4=
EXTT5=
EXTT6=
EXTT7=
EXTT8=
EXTT9=
EXTT10=
EXTT11=
EXTT12=
EXTT13=
EXTT14=
EXTT15=
PLAYORDER=
